<?xml version="1.0" standalone="no"?>
<!DOCTYPE svg PUBLIC "-//W3C//DTD SVG 20010904//EN"
 "http://www.w3.org/TR/2001/REC-SVG-20010904/DTD/svg10.dtd">
<svg version="1.0" xmlns="http://www.w3.org/2000/svg"
 width="300.000000pt" height="288.000000pt" viewBox="0 0 300.000000 288.000000"
 preserveAspectRatio="xMidYMid meet">
<metadata>
Created by potrace 1.10, written by Peter Selinger 2001-2011
</metadata>
<g transform="translate(0.000000,288.000000) scale(0.100000,-0.100000)"
fill="#000000" stroke="none">
<path d="M1867 2352 c-41 -22 -101 -59 -134 -85 -99 -76 -133 -89 -252 -99
-68 -5 -125 -15 -159 -29 -45 -18 -58 -20 -79 -10 -15 7 -72 21 -127 32 -122
24 -179 49 -269 117 -216 165 -469 73 -485 -175 -8 -122 24 -238 80 -290 33
-31 59 -39 181 -54 132 -16 139 -12 103 59 -34 67 -33 113 5 209 18 43 34 97
37 121 4 38 1 45 -30 75 -37 34 -115 67 -161 67 -32 0 -82 -23 -115 -53 -30
-28 -28 -6 3 31 38 45 83 62 168 62 65 0 83 -4 143 -35 72 -36 153 -106 185
-159 23 -37 24 -70 4 -126 -24 -68 -18 -66 38 17 64 94 82 103 160 78 76 -24
105 -56 116 -131 5 -32 9 -50 10 -38 2 39 33 113 57 137 29 29 126 53 178 43
38 -7 76 -46 76 -77 0 -11 5 -19 10 -19 6 0 10 18 10 39 0 57 13 83 67 136
100 100 253 175 322 159 36 -9 92 -44 86 -54 -3 -4 -31 -6 -63 -3 -48 4 -62 1
-92 -19 -20 -13 -46 -44 -59 -72 -24 -47 -24 -52 -12 -120 22 -119 24 -169 9
-206 -18 -46 -14 -62 24 -84 63 -38 212 5 277 79 66 76 78 225 26 330 -33 67
-98 141 -146 165 -59 30 -107 26 -192 -18z m277 -121 c54 -77 71 -195 40 -269
-32 -76 -107 -130 -198 -139 -70 -7 -81 6 -64 76 10 44 9 67 -7 145 -14 75
-16 99 -6 128 19 59 53 82 129 89 37 3 70 7 73 7 4 1 18 -16 33 -37z m-1510 8
c47 -13 96 -59 96 -89 0 -12 -14 -56 -31 -98 -38 -97 -45 -154 -25 -210 12
-34 13 -44 3 -48 -18 -6 -167 20 -194 34 -12 7 -33 37 -48 68 -49 103 -45 304
6 304 10 0 39 11 65 25 52 28 71 30 128 14z"/>
<path d="M2001 1688 c-14 -38 -20 -149 -12 -218 5 -45 3 -80 -7 -115 -23 -82
-137 -311 -163 -328 -13 -9 -53 -21 -89 -28 -95 -17 -100 -20 -61 -33 47 -17
73 -51 69 -95 -3 -31 -7 -36 -30 -39 -16 -2 -28 -7 -28 -11 0 -4 14 -5 32 -3
32 5 32 5 17 -19 -9 -13 -27 -26 -39 -27 -12 -2 -32 -13 -44 -24 l-21 -20 23
7 c38 11 27 -27 -20 -66 -58 -48 -74 -55 -139 -62 -53 -5 -57 -4 -72 23 -24
41 -22 46 31 75 l48 26 -4 62 c-3 43 1 75 12 101 15 36 15 38 -1 25 -25 -20
-35 -37 -58 -99 -16 -44 -27 -58 -55 -72 -53 -26 -121 -23 -148 5 -12 13 -22
30 -22 38 0 15 -80 113 -86 106 -2 -2 5 -30 16 -62 11 -32 20 -73 20 -92 0
-23 5 -35 17 -39 81 -24 92 -65 28 -101 -44 -25 -89 -29 -149 -12 -43 12 -79
46 -107 101 -25 49 -25 72 1 65 11 -3 20 -1 20 4 0 5 -7 9 -15 9 -8 0 -15 4
-15 9 0 5 -12 11 -26 13 -15 2 -34 14 -43 27 l-16 24 38 -6 c22 -3 35 -2 32 4
-4 5 -16 9 -29 9 -25 0 -46 17 -46 38 0 49 69 116 99 97 6 -3 9 0 5 8 -3 9
-28 16 -69 20 -81 8 -132 29 -147 61 -6 15 -19 26 -29 26 -20 0 -103 161 -113
221 -3 20 1 71 9 115 8 43 15 98 15 122 0 24 5 52 10 63 8 15 7 19 -4 19 -19
0 -56 -65 -56 -98 0 -15 -9 -59 -20 -97 -11 -38 -20 -83 -19 -100 0 -16 22
-77 48 -135 27 -58 45 -106 40 -108 -4 -2 -25 6 -46 16 -61 31 -332 91 -364
80 -7 -2 16 -10 51 -17 151 -30 263 -62 327 -93 99 -49 120 -94 26 -58 -27 10
-86 26 -129 34 -91 18 -336 30 -314 16 8 -6 49 -10 91 -10 95 0 165 -12 306
-53 95 -27 114 -36 128 -60 9 -16 15 -30 13 -32 -2 -2 -42 3 -88 11 -100 17
-342 26 -420 15 -43 -5 -12 -9 135 -13 105 -4 233 -13 285 -22 83 -13 98 -19
117 -43 41 -51 36 -53 -124 -53 -151 -1 -290 -13 -305 -28 -5 -5 15 -5 44 -1
29 4 137 8 239 8 l186 1 26 -30 c15 -16 27 -32 27 -34 0 -2 -76 -7 -170 -11
-93 -4 -170 -11 -170 -15 0 -5 81 -6 179 -3 l180 6 14 -34 c23 -55 106 -135
152 -148 22 -6 49 -11 61 -11 12 0 44 -25 77 -59 71 -73 114 -94 193 -95 75
-1 124 28 187 109 28 37 49 55 64 55 30 0 80 44 120 107 l34 53 92 3 c51 1
127 1 170 0 44 -1 77 2 77 7 0 6 -65 10 -165 10 -103 0 -165 4 -165 10 0 6 4
10 8 10 5 0 14 11 20 24 14 32 54 37 299 38 140 1 186 4 158 10 -22 5 -124 7
-228 6 -162 -3 -187 -1 -187 12 0 26 30 60 53 60 12 0 65 12 117 27 82 23 119
27 273 31 108 2 177 8 177 14 0 6 -68 8 -192 5 -163 -4 -207 -8 -286 -29 -51
-13 -94 -22 -97 -20 -2 3 2 17 10 31 11 22 37 36 122 69 125 49 172 59 320 68
164 10 171 25 8 19 -150 -6 -215 -19 -338 -66 -92 -34 -87 -33 -87 -13 0 37
249 131 480 182 l45 10 -50 1 c-73 1 -276 -52 -373 -99 -47 -22 -87 -38 -90
-36 -2 3 14 36 36 73 89 147 105 217 76 323 -10 40 -17 96 -16 147 1 82 -11
114 -27 71z m-111 -682 c0 -8 -6 -19 -14 -25 -18 -15 -31 15 -15 35 13 16 29
10 29 -10z m-1072 -15 c8 -5 12 -22 10 -42 l-3 -33 -28 42 c-24 36 -25 42 -10
42 10 0 24 -4 31 -9z m1010 -8 c-13 -28 -44 -73 -50 -73 -10 0 -10 42 0 56 11
17 58 32 50 17z m-1028 -80 c15 -16 31 -43 35 -62 10 -46 -9 -33 -36 25 -12
24 -25 44 -30 44 -5 0 -9 5 -9 10 0 16 9 12 40 -17z m1031 -19 c-11 -14 -25
-41 -31 -60 -16 -46 -34 -45 -27 3 6 37 53 97 69 87 4 -3 0 -17 -11 -30z m-95
-162 c-21 -40 -41 -53 -31 -21 8 26 36 62 42 55 3 -2 -3 -18 -11 -34z m-367
-73 c11 -36 10 -42 -6 -54 -27 -20 -77 8 -69 38 3 12 6 30 6 40 0 12 8 17 28
17 25 0 30 -6 41 -41z m306 -16 c-25 -37 -56 -62 -79 -63 -11 0 -41 -23 -67
-52 -31 -34 -47 -45 -44 -33 2 11 4 35 4 53 1 29 4 32 34 32 17 0 44 8 58 18
66 43 85 57 92 70 5 7 11 11 14 8 3 -3 -2 -18 -12 -33z m-354 -85 c0 -13 3
-53 8 -90 5 -51 4 -68 -5 -68 -14 0 -54 47 -54 62 0 6 -11 23 -25 40 -32 37
-31 44 3 62 42 23 72 20 73 -6z m122 -1 c16 -11 16 -14 -3 -52 -11 -21 -20
-45 -20 -51 0 -13 -60 -67 -67 -60 -2 2 -1 43 3 90 l7 86 31 0 c18 0 40 -6 49
-13z"/>
<path d="M763 1462 c33 -34 47 -79 47 -146 0 -46 -1 -48 -17 -34 -34 29 -46
32 -34 10 11 -21 36 -40 149 -113 34 -22 62 -44 62 -49 0 -18 52 -69 80 -78
28 -10 29 -10 20 13 -19 51 27 47 87 -7 l46 -43 -28 48 c-22 39 -27 57 -23 95
l5 47 -47 0 c-60 0 -107 31 -165 110 -79 108 -87 116 -139 145 -64 37 -77 38
-43 2z m181 -207 c23 -27 61 -57 92 -73 30 -14 54 -29 54 -32 0 -3 -13 -14
-30 -23 -29 -18 -29 -18 -52 14 -13 17 -56 54 -96 81 -51 35 -72 54 -68 65 3
8 6 29 6 46 l1 32 27 -32 c15 -17 44 -52 66 -78z"/>
<path d="M1845 1476 c-54 -25 -97 -64 -141 -129 -74 -111 -150 -160 -220 -143
-23 6 -25 5 -18 -16 12 -37 7 -77 -15 -119 -28 -54 -27 -55 14 -14 34 33 79
54 92 41 3 -3 1 -17 -5 -31 -23 -50 55 -14 86 40 13 21 50 53 94 81 78 50 128
92 128 107 0 5 -11 2 -25 -7 -25 -16 -25 -16 -25 16 1 56 20 121 46 155 14 18
24 33 22 33 -2 -1 -16 -7 -33 -14z m-73 -167 c5 -46 5 -47 -36 -70 -22 -12
-66 -47 -97 -76 l-57 -54 -33 20 -32 20 54 25 c65 30 92 53 148 130 24 32 44
56 46 54 1 -2 5 -24 7 -49z"/>
</g>
</svg>
