<?xml version="1.0" encoding="UTF-8" standalone="no" ?>
<!DOCTYPE svg PUBLIC "-//W3C//DTD SVG 1.1//EN" "http://www.w3.org/Graphics/SVG/1.1/DTD/svg11.dtd">
<svg xmlns="http://www.w3.org/2000/svg" xmlns:xlink="http://www.w3.org/1999/xlink" version="1.1" width="735" height="1102" viewBox="0 0 735 1102" xml:space="preserve">
<desc>Created with Fabric.js 5.2.4</desc>
<defs>
</defs>
<g transform="matrix(1 0 0 1 367.5 551)" id="faec32ba-7868-4435-a66b-14860fc00ba3"  >
<rect style="stroke: none; stroke-width: 1; stroke-dasharray: none; stroke-linecap: butt; stroke-dashoffset: 0; stroke-linejoin: miter; stroke-miterlimit: 4; fill: rgb(255,255,255); fill-rule: nonzero; opacity: 1; visibility: hidden;" vector-effect="non-scaling-stroke"  x="-367.5" y="-551" rx="0" ry="0" width="735" height="1102" />
</g>
<g transform="matrix(Infinity NaN NaN Infinity 0 0)" id="f014a525-61a7-4b09-ae99-a0ecaee298cc"  >
</g>
<g transform="matrix(0.68 0 0 0.68 367.5 551)"  >
<g style="" vector-effect="non-scaling-stroke"   >
		<g transform="matrix(1.78 0 0 1.78 -2.94 -92.35)"  >
<path style="stroke: none; stroke-width: 1; stroke-dasharray: none; stroke-linecap: butt; stroke-dashoffset: 0; stroke-linejoin: miter; stroke-miterlimit: 4; fill: rgb(0,0,0); fill-rule: nonzero; opacity: 1;" vector-effect="non-scaling-stroke"  transform=" translate(-97.43, -60.73)" d="M 140.023438 39.601562 C 136.949219 41.25 132.449219 44.023438 129.976562 45.976562 C 122.550781 51.675781 120 52.648438 111.074219 53.398438 C 105.976562 53.773438 101.699219 54.523438 99.148438 55.574219 C 95.773438 56.925781 94.800781 57.074219 93.226562 56.324219 C 92.101562 55.800781 87.824219 54.75 83.699219 53.925781 C 74.550781 52.125 70.273438 50.25 63.523438 45.148438 C 47.324219 32.773438 28.351562 39.675781 27.148438 58.273438 C 26.550781 67.425781 28.949219 76.125 33.148438 80.023438 C 35.625 82.351562 37.574219 82.949219 46.726562 84.074219 C 56.625 85.273438 57.148438 84.976562 54.449219 79.648438 C 51.898438 74.625 51.976562 71.175781 54.824219 63.976562 C 56.175781 60.75 57.375 56.699219 57.601562 54.898438 C 57.898438 52.050781 57.675781 51.523438 55.351562 49.273438 C 52.574219 46.726562 46.726562 44.25 43.273438 44.25 C 40.875 44.25 37.125 45.976562 34.648438 48.226562 C 32.398438 50.324219 32.550781 48.675781 34.875 45.898438 C 37.726562 42.523438 41.101562 41.25 47.476562 41.25 C 52.351562 41.25 53.699219 41.550781 58.199219 43.875 C 63.601562 46.574219 69.675781 51.824219 72.074219 55.800781 C 73.800781 58.574219 73.875 61.050781 72.375 65.25 C 70.574219 70.351562 71.023438 70.199219 75.226562 63.976562 C 80.023438 56.925781 81.375 56.25 87.226562 58.125 C 92.925781 59.925781 95.101562 62.324219 95.925781 67.949219 C 96.300781 70.351562 96.601562 71.699219 96.675781 70.800781 C 96.824219 67.875 99.148438 62.324219 100.949219 60.523438 C 103.125 58.351562 110.398438 56.550781 114.300781 57.300781 C 117.148438 57.824219 120 60.75 120 63.074219 C 120 63.898438 120.375 64.5 120.75 64.5 C 121.199219 64.5 121.5 63.148438 121.5 61.574219 C 121.5 57.300781 122.476562 55.351562 126.523438 51.375 C 134.023438 43.875 145.5 38.25 150.675781 39.449219 C 153.375 40.125 157.574219 42.75 157.125 43.5 C 156.898438 43.800781 154.800781 43.949219 152.398438 43.726562 C 148.800781 43.425781 147.75 43.648438 145.5 45.148438 C 144 46.125 142.050781 48.449219 141.074219 50.550781 C 139.273438 54.074219 139.273438 54.449219 140.175781 59.550781 C 141.824219 68.476562 141.976562 72.226562 140.851562 75 C 139.5 78.449219 139.800781 79.648438 142.648438 81.300781 C 147.375 84.148438 158.550781 80.925781 163.425781 75.375 C 168.375 69.675781 169.273438 58.5 165.375 50.625 C 162.898438 45.601562 158.023438 40.050781 154.425781 38.25 C 150 36 146.398438 36.300781 140.023438 39.601562 Z M 160.800781 48.675781 C 164.851562 54.449219 166.125 63.300781 163.800781 68.851562 C 161.398438 74.550781 155.773438 78.601562 148.949219 79.273438 C 143.699219 79.800781 142.875 78.824219 144.148438 73.574219 C 144.898438 70.273438 144.824219 68.550781 143.625 62.699219 C 142.574219 57.074219 142.425781 55.273438 143.175781 53.101562 C 144.601562 48.675781 147.148438 46.949219 152.851562 46.425781 C 155.625 46.199219 158.101562 45.898438 158.324219 45.898438 C 158.625 45.824219 159.675781 47.101562 160.800781 48.675781 Z M 47.550781 48.074219 C 51.074219 49.050781 54.75 52.5 54.75 54.75 C 54.75 55.648438 53.699219 58.949219 52.425781 62.101562 C 49.574219 69.375 49.050781 73.648438 50.550781 77.851562 C 51.449219 80.398438 51.523438 81.148438 50.773438 81.449219 C 49.425781 81.898438 38.25 79.949219 36.226562 78.898438 C 35.324219 78.375 33.75 76.125 32.625 73.800781 C 28.949219 66.074219 29.25 51 33.074219 51 C 33.824219 51 36 50.175781 37.949219 49.125 C 41.851562 47.023438 43.273438 46.875 47.550781 48.074219 Z M 47.550781 48.074219" stroke-linecap="round" />
</g>
		<g transform="matrix(1.78 0 0 1.78 0 45.48)"  >
<path style="stroke: none; stroke-width: 1; stroke-dasharray: none; stroke-linecap: butt; stroke-dashoffset: 0; stroke-linejoin: miter; stroke-miterlimit: 4; fill: rgb(0,0,0); fill-rule: nonzero; opacity: 1;" vector-effect="non-scaling-stroke"  transform=" translate(-99.09, -138.26)" d="M 150.074219 89.398438 C 149.023438 92.25 148.574219 100.574219 149.175781 105.75 C 149.550781 109.125 149.398438 111.75 148.648438 114.375 C 146.925781 120.523438 138.375 137.699219 136.425781 138.976562 C 135.449219 139.648438 132.449219 140.550781 129.75 141.074219 C 122.625 142.351562 122.25 142.574219 125.175781 143.550781 C 128.699219 144.824219 130.648438 147.375 130.351562 150.675781 C 130.125 153 129.824219 153.375 128.101562 153.601562 C 126.898438 153.75 126 154.125 126 154.425781 C 126 154.726562 127.050781 154.800781 128.398438 154.648438 C 130.800781 154.273438 130.800781 154.273438 129.675781 156.074219 C 129 157.050781 127.648438 158.023438 126.75 158.101562 C 125.851562 158.25 124.351562 159.074219 123.449219 159.898438 L 121.875 161.398438 L 123.601562 160.875 C 126.449219 160.050781 125.625 162.898438 122.101562 165.824219 C 117.75 169.425781 116.550781 169.949219 111.675781 170.476562 C 107.699219 170.851562 107.398438 170.773438 106.273438 168.75 C 104.476562 165.675781 104.625 165.300781 108.601562 163.125 L 112.199219 161.175781 L 111.898438 156.523438 C 111.675781 153.300781 111.976562 150.898438 112.800781 148.949219 C 113.925781 146.25 113.925781 146.101562 112.726562 147.074219 C 110.851562 148.574219 110.101562 149.851562 108.375 154.5 C 107.175781 157.800781 106.351562 158.851562 104.25 159.898438 C 100.273438 161.851562 95.175781 161.625 93.148438 159.523438 C 92.25 158.550781 91.5 157.273438 91.5 156.675781 C 91.5 155.550781 85.5 148.199219 85.050781 148.726562 C 84.898438 148.875 85.425781 150.976562 86.25 153.375 C 87.074219 155.773438 87.75 158.851562 87.75 160.273438 C 87.75 162 88.125 162.898438 89.023438 163.199219 C 95.101562 165 95.925781 168.074219 91.125 170.773438 C 87.824219 172.648438 84.449219 172.949219 79.949219 171.675781 C 76.726562 170.773438 74.023438 168.226562 71.925781 164.101562 C 70.050781 160.425781 70.050781 158.699219 72 159.226562 C 72.824219 159.449219 73.5 159.300781 73.5 158.925781 C 73.5 158.550781 72.976562 158.25 72.375 158.25 C 71.773438 158.25 71.25 157.949219 71.25 157.574219 C 71.25 157.199219 70.351562 156.75 69.300781 156.601562 C 68.175781 156.449219 66.75 155.550781 66.074219 154.574219 L 64.875 152.773438 L 67.726562 153.226562 C 69.375 153.449219 70.351562 153.375 70.125 152.925781 C 69.824219 152.550781 68.925781 152.25 67.949219 152.25 C 66.074219 152.25 64.5 150.976562 64.5 149.398438 C 64.5 145.726562 69.675781 140.699219 71.925781 142.125 C 72.375 142.351562 72.601562 142.125 72.300781 141.523438 C 72.074219 140.851562 70.199219 140.324219 67.125 140.023438 C 61.050781 139.425781 57.226562 137.851562 56.101562 135.449219 C 55.648438 134.324219 54.675781 133.5 53.925781 133.5 C 52.425781 133.5 46.199219 121.425781 45.449219 116.925781 C 45.226562 115.425781 45.523438 111.601562 46.125 108.300781 C 46.726562 105.074219 47.25 100.949219 47.25 99.148438 C 47.25 97.351562 47.625 95.25 48 94.425781 C 48.601562 93.300781 48.523438 93 47.699219 93 C 46.273438 93 43.5 97.875 43.5 100.351562 C 43.5 101.476562 42.824219 104.773438 42 107.625 C 41.175781 110.476562 40.5 113.851562 40.574219 115.125 C 40.574219 116.324219 42.226562 120.898438 44.175781 125.25 C 46.199219 129.601562 47.550781 133.199219 47.175781 133.351562 C 46.875 133.5 45.300781 132.898438 43.726562 132.148438 C 39.148438 129.824219 18.824219 125.324219 16.425781 126.148438 C 15.898438 126.300781 17.625 126.898438 20.25 127.425781 C 31.574219 129.675781 39.976562 132.074219 44.773438 134.398438 C 52.199219 138.074219 53.773438 141.449219 46.726562 138.75 C 44.699219 138 40.273438 136.800781 37.050781 136.199219 C 30.226562 134.851562 11.851562 133.949219 13.5 135 C 14.101562 135.449219 17.175781 135.75 20.324219 135.75 C 27.449219 135.75 32.699219 136.648438 43.273438 139.726562 C 50.398438 141.75 51.824219 142.425781 52.875 144.226562 C 53.550781 145.425781 54 146.476562 53.851562 146.625 C 53.699219 146.773438 50.699219 146.398438 47.25 145.800781 C 39.75 144.523438 21.601562 143.851562 15.75 144.675781 C 12.523438 145.050781 14.851562 145.351562 25.875 145.648438 C 33.75 145.949219 43.351562 146.625 47.25 147.300781 C 53.476562 148.273438 54.601562 148.726562 56.023438 150.523438 C 59.101562 154.351562 58.726562 154.5 46.726562 154.5 C 35.398438 154.574219 24.976562 155.476562 23.851562 156.601562 C 23.476562 156.976562 24.976562 156.976562 27.148438 156.675781 C 29.324219 156.375 37.425781 156.074219 45.074219 156.074219 L 59.023438 156 L 60.976562 158.25 C 62.101562 159.449219 63 160.648438 63 160.800781 C 63 160.949219 57.300781 161.324219 50.25 161.625 C 43.273438 161.925781 37.5 162.449219 37.5 162.75 C 37.5 163.125 43.574219 163.199219 50.925781 162.976562 L 64.425781 162.523438 L 65.476562 165.074219 C 67.199219 169.199219 73.425781 175.199219 76.875 176.175781 C 78.523438 176.625 80.550781 177 81.449219 177 C 82.351562 177 84.75 178.875 87.226562 181.425781 C 92.550781 186.898438 95.773438 188.476562 101.699219 188.550781 C 107.324219 188.625 111 186.449219 115.726562 180.375 C 117.824219 177.601562 119.398438 176.25 120.523438 176.25 C 122.773438 176.25 126.523438 172.949219 129.523438 168.226562 L 132.074219 164.25 L 138.976562 164.023438 C 142.800781 163.949219 148.5 163.949219 151.726562 164.023438 C 155.023438 164.101562 157.5 163.875 157.5 163.5 C 157.5 163.050781 152.625 162.75 145.125 162.75 C 137.398438 162.75 132.75 162.449219 132.75 162 C 132.75 161.550781 133.050781 161.25 133.351562 161.25 C 133.726562 161.25 134.398438 160.425781 134.851562 159.449219 C 135.898438 157.050781 138.898438 156.675781 157.273438 156.601562 C 167.773438 156.523438 171.226562 156.300781 169.125 155.851562 C 167.476562 155.476562 159.824219 155.324219 152.023438 155.398438 C 139.875 155.625 138 155.476562 138 154.5 C 138 152.550781 140.25 150 141.976562 150 C 142.875 150 146.851562 149.101562 150.75 147.976562 C 156.898438 146.25 159.675781 145.949219 171.226562 145.648438 C 179.324219 145.5 184.5 145.050781 184.5 144.601562 C 184.5 144.148438 179.398438 144 170.101562 144.226562 C 157.875 144.523438 154.574219 144.824219 148.648438 146.398438 C 144.824219 147.375 141.601562 148.050781 141.375 147.898438 C 141.226562 147.675781 141.523438 146.625 142.125 145.574219 C 142.949219 143.925781 144.898438 142.875 151.273438 140.398438 C 160.648438 136.726562 164.175781 135.976562 175.273438 135.300781 C 187.574219 134.550781 188.101562 133.425781 175.875 133.875 C 164.625 134.324219 159.75 135.300781 150.523438 138.824219 C 143.625 141.375 144 141.300781 144 139.800781 C 144 137.023438 162.675781 129.976562 180 126.148438 L 183.375 125.398438 L 179.625 125.324219 C 174.148438 125.25 158.925781 129.226562 151.648438 132.75 C 148.125 134.398438 145.125 135.601562 144.898438 135.449219 C 144.75 135.226562 145.949219 132.75 147.601562 129.976562 C 154.273438 118.949219 155.476562 113.699219 153.300781 105.75 C 152.550781 102.75 152.023438 98.550781 152.101562 94.726562 C 152.175781 88.574219 151.273438 86.175781 150.074219 89.398438 Z M 141.75 140.550781 C 141.75 141.148438 141.300781 141.976562 140.699219 142.425781 C 139.351562 143.550781 138.375 141.300781 139.574219 139.800781 C 140.550781 138.601562 141.75 139.050781 141.75 140.550781 Z M 61.351562 141.675781 C 61.949219 142.050781 62.25 143.324219 62.101562 144.824219 L 61.875 147.300781 L 59.773438 144.148438 C 57.976562 141.449219 57.898438 141 59.023438 141 C 59.773438 141 60.824219 141.300781 61.351562 141.675781 Z M 137.101562 142.273438 C 136.125 144.375 133.800781 147.75 133.351562 147.75 C 132.601562 147.75 132.601562 144.601562 133.351562 143.550781 C 134.175781 142.273438 137.699219 141.148438 137.101562 142.273438 Z M 60 148.273438 C 61.125 149.476562 62.324219 151.5 62.625 152.925781 C 63.375 156.375 61.949219 155.398438 59.925781 151.050781 C 59.023438 149.25 58.050781 147.75 57.675781 147.75 C 57.300781 147.75 57 147.375 57 147 C 57 145.800781 57.675781 146.101562 60 148.273438 Z M 137.324219 149.699219 C 136.5 150.75 135.449219 152.773438 135 154.199219 C 133.800781 157.648438 132.449219 157.574219 132.976562 153.976562 C 133.425781 151.199219 136.949219 146.699219 138.148438 147.449219 C 138.449219 147.675781 138.148438 148.726562 137.324219 149.699219 Z M 130.199219 161.851562 C 128.625 164.851562 127.125 165.824219 127.875 163.425781 C 128.476562 161.476562 130.574219 158.773438 131.023438 159.300781 C 131.25 159.449219 130.800781 160.648438 130.199219 161.851562 Z M 102.675781 167.324219 C 103.5 170.023438 103.425781 170.476562 102.226562 171.375 C 100.199219 172.875 96.449219 170.773438 97.050781 168.523438 C 97.273438 167.625 97.5 166.273438 97.5 165.523438 C 97.5 164.625 98.101562 164.25 99.601562 164.25 C 101.476562 164.25 101.851562 164.699219 102.675781 167.324219 Z M 125.625 168.523438 C 123.75 171.300781 121.425781 173.175781 119.699219 173.25 C 118.875 173.25 116.625 174.976562 114.675781 177.148438 C 112.351562 179.699219 111.148438 180.523438 111.375 179.625 C 111.523438 178.800781 111.675781 177 111.675781 175.648438 C 111.75 173.476562 111.976562 173.25 114.226562 173.25 C 115.5 173.25 117.523438 172.648438 118.574219 171.898438 C 123.523438 168.675781 124.949219 167.625 125.476562 166.648438 C 125.851562 166.125 126.300781 165.824219 126.523438 166.050781 C 126.75 166.273438 126.375 167.398438 125.625 168.523438 Z M 99.074219 174.898438 C 99.074219 175.875 99.300781 178.875 99.675781 181.648438 C 100.050781 185.476562 99.976562 186.75 99.300781 186.75 C 98.25 186.75 95.25 183.226562 95.25 182.101562 C 95.25 181.648438 94.425781 180.375 93.375 179.101562 C 90.976562 176.324219 91.050781 175.800781 93.601562 174.449219 C 96.75 172.726562 99 172.949219 99.074219 174.898438 Z M 108.226562 174.976562 C 109.425781 175.800781 109.425781 176.023438 108 178.875 C 107.175781 180.449219 106.5 182.25 106.5 182.699219 C 106.5 183.675781 102 187.726562 101.476562 187.199219 C 101.324219 187.050781 101.398438 183.976562 101.699219 180.449219 L 102.226562 174 L 104.550781 174 C 105.898438 174 107.550781 174.449219 108.226562 174.976562 Z M 108.226562 174.976562" stroke-linecap="round" />
</g>
		<g transform="matrix(1.78 0 0 1.78 -46.3 16.8)"  >
<path style="stroke: none; stroke-width: 1; stroke-dasharray: none; stroke-linecap: butt; stroke-dashoffset: 0; stroke-linejoin: miter; stroke-miterlimit: 4; fill: rgb(0,0,0); fill-rule: nonzero; opacity: 1;" vector-effect="non-scaling-stroke"  transform=" translate(-73.04, -122.12)" d="M 57.226562 106.351562 C 59.699219 108.898438 60.75 112.273438 60.75 117.300781 C 60.75 120.75 60.675781 120.898438 59.476562 119.851562 C 56.925781 117.675781 56.023438 117.449219 56.925781 119.101562 C 57.75 120.675781 59.625 122.101562 68.101562 127.574219 C 70.648438 129.226562 72.75 130.875 72.75 131.25 C 72.75 132.601562 76.648438 136.425781 78.75 137.101562 C 80.851562 137.851562 80.925781 137.851562 80.25 136.125 C 78.824219 132.300781 82.273438 132.601562 86.773438 136.648438 L 90.226562 139.875 L 88.125 136.273438 C 86.476562 133.351562 86.101562 132 86.398438 129.148438 L 86.773438 125.625 L 83.25 125.625 C 78.75 125.625 75.226562 123.300781 70.875 117.375 C 64.949219 109.273438 64.351562 108.675781 60.449219 106.5 C 55.648438 103.726562 54.675781 103.648438 57.226562 106.351562 Z M 70.800781 121.875 C 72.523438 123.898438 75.375 126.148438 77.699219 127.351562 C 79.949219 128.398438 81.75 129.523438 81.75 129.75 C 81.75 129.976562 80.773438 130.800781 79.5 131.476562 C 77.324219 132.824219 77.324219 132.824219 75.601562 130.425781 C 74.625 129.148438 71.398438 126.375 68.398438 124.351562 C 64.574219 121.726562 63 120.300781 63.300781 119.476562 C 63.523438 118.875 63.75 117.300781 63.75 116.023438 L 63.824219 113.625 L 65.851562 116.023438 C 66.976562 117.300781 69.148438 119.925781 70.800781 121.875 Z M 70.800781 121.875" stroke-linecap="round" />
</g>
		<g transform="matrix(1.78 0 0 1.78 44.52 15.94)"  >
<path style="stroke: none; stroke-width: 1; stroke-dasharray: none; stroke-linecap: butt; stroke-dashoffset: 0; stroke-linejoin: miter; stroke-miterlimit: 4; fill: rgb(0,0,0); fill-rule: nonzero; opacity: 1;" vector-effect="non-scaling-stroke"  transform=" translate(-124.13, -121.64)" d="M 138.375 105.300781 C 134.324219 107.175781 131.101562 110.101562 127.800781 114.976562 C 122.25 123.300781 116.550781 126.976562 111.300781 125.699219 C 109.574219 125.25 109.425781 125.324219 109.949219 126.898438 C 110.851562 129.675781 110.476562 132.675781 108.824219 135.824219 C 106.726562 139.875 106.800781 139.949219 109.875 136.875 C 112.425781 134.398438 115.800781 132.824219 116.773438 133.800781 C 117 134.023438 116.851562 135.074219 116.398438 136.125 C 114.675781 139.875 120.523438 137.175781 122.851562 133.125 C 123.824219 131.550781 126.601562 129.148438 129.898438 127.050781 C 135.75 123.300781 139.5 120.148438 139.5 119.023438 C 139.5 118.648438 138.675781 118.875 137.625 119.550781 C 135.75 120.75 135.75 120.75 135.75 118.351562 C 135.824219 114.148438 137.25 109.273438 139.199219 106.726562 C 140.25 105.375 141 104.25 140.851562 104.25 C 140.699219 104.324219 139.648438 104.773438 138.375 105.300781 Z M 132.898438 117.824219 C 133.273438 121.273438 133.273438 121.351562 130.199219 123.074219 C 128.550781 123.976562 125.25 126.601562 122.925781 128.773438 L 118.648438 132.824219 L 116.175781 131.324219 L 113.773438 129.824219 L 117.824219 127.949219 C 122.699219 125.699219 124.726562 123.976562 128.925781 118.199219 C 130.726562 115.800781 132.226562 114 132.375 114.148438 C 132.449219 114.300781 132.75 115.949219 132.898438 117.824219 Z M 132.898438 117.824219" stroke-linecap="round" />
</g>
</g>
</g>
</svg>