<?xml version="1.0" encoding="UTF-8"?>
<svg version="1.1" xmlns="http://www.w3.org/2000/svg" width="180" height="180">
<path d="M0 0 C2.04954208 1.67397154 2.93743143 2.47669927 3.2578125 5.15625 C3.21398437 5.9296875 3.17015625 6.703125 3.125 7.5 C2.97470957 10.50580851 3.02575264 12.07725791 4 15 C5.29106555 23.6125512 2.24541223 29.64633952 -2 37 C-1.07380859 36.60167969 -1.07380859 36.60167969 -0.12890625 36.1953125 C9.09874049 32.34694841 16.98707612 30.62373146 27 31 C27 31.33 27 31.66 27 32 C25.865625 32.24234375 24.73125 32.4846875 23.5625 32.734375 C12.35563304 35.18200325 12.35563304 35.18200325 2 40 C2.94875 39.690625 3.8975 39.38125 4.875 39.0625 C12.42200094 36.91708239 20.20964708 36.87434915 28 37 C28 37.66 28 38.32 28 39 C26.79085937 39.08636719 25.58171875 39.17273438 24.3359375 39.26171875 C13.99712364 40.10898889 4.42089245 41.3929178 -5 46 C-5.495 46.99 -5.495 46.99 -6 48 C-5.11441406 47.7834375 -4.22882813 47.566875 -3.31640625 47.34375 C3.94911365 45.71070911 10.852439 44.70030835 18.3125 44.6875 C19.04718506 44.68234375 19.78187012 44.6771875 20.53881836 44.671875 C25.74043819 44.74043819 25.74043819 44.74043819 28 47 C26.88882813 47.04898438 25.77765625 47.09796875 24.6328125 47.1484375 C17.37380828 47.50126039 10.33057938 47.88780475 3.2265625 49.5234375 C-0.48491515 50.31782394 -4.22498985 50.63467644 -8 51 C-8 51.66 -8 52.32 -8 53 C-7.39003174 53.01981934 -6.78006348 53.03963867 -6.15161133 53.06005859 C-3.37149467 53.15567876 -0.59209154 53.26520705 2.1875 53.375 C3.14720703 53.4059375 4.10691406 53.436875 5.09570312 53.46875 C6.02705078 53.50742188 6.95839844 53.54609375 7.91796875 53.5859375 C9.19837036 53.63306885 9.19837036 53.63306885 10.50463867 53.68115234 C13.26214422 54.03349578 15.46999969 54.87071247 18 56 C15.58810686 57.20594657 14.11131717 57.10004165 11.421875 57.0625 C10.50792969 57.05476563 9.59398437 57.04703125 8.65234375 57.0390625 C6.73307008 57.01323109 4.81379917 56.98719288 2.89453125 56.9609375 C-4.1115036 56.8599188 -4.1115036 56.8599188 -11 58 C-11.495 58.99 -11.495 58.99 -12 60 C-10.081875 59.9690625 -10.081875 59.9690625 -8.125 59.9375 C-3.03792983 59.92941245 1.9516147 60.40979211 7 61 C7 61.33 7 61.66 7 62 C-0.26 62.33 -7.52 62.66 -15 63 C-15.99 64.98 -15.99 64.98 -17 67 C-20.39494217 71.86608378 -20.39494217 71.86608378 -22.94140625 72.4296875 C-25.59120999 73.16378872 -26.38930797 74.29135235 -28.0625 76.4375 C-30.3973179 79.40401929 -32.29631193 81.68528675 -36.19921875 82.40625 C-42.32548717 82.63706702 -45.62058925 81.56923038 -50.30859375 77.60546875 C-51.41381222 76.55640457 -52.48557813 75.47061972 -53.515625 74.34765625 C-55.09320021 72.69329131 -55.09320021 72.69329131 -58.3125 72.25 C-63.52338397 70.48359865 -66.55471127 66.89057745 -69 62 C-79.89 61.505 -79.89 61.505 -91 61 C-91 60.67 -91 60.34 -91 60 C-81.595 59.01 -81.595 59.01 -72 58 C-76.60759642 56.15696143 -78.27270022 55.7832154 -82.95703125 56.0234375 C-84.06884766 56.075 -85.18066406 56.1265625 -86.32617188 56.1796875 C-88.0519043 56.27636719 -88.0519043 56.27636719 -89.8125 56.375 C-91.56723633 56.46007812 -91.56723633 56.46007812 -93.35742188 56.546875 C-96.23893 56.68801009 -99.11952248 56.83939156 -102 57 C-101.67 56.34 -101.34 55.68 -101 55 C-97.65324224 54.09770392 -94.37112053 53.83188861 -90.91796875 53.68359375 C-89.98662109 53.64169922 -89.05527344 53.59980469 -88.09570312 53.55664062 C-87.13599609 53.51732422 -86.17628906 53.47800781 -85.1875 53.4375 C-84.20845703 53.39431641 -83.22941406 53.35113281 -82.22070312 53.30664062 C-79.81392973 53.2009774 -77.40706017 53.09887673 -75 53 C-75.33 52.34 -75.66 51.68 -76 51 C-83.16255463 48.63003707 -90.51327869 48.35724921 -98 47.875 C-99.25167969 47.78863281 -100.50335938 47.70226562 -101.79296875 47.61328125 C-104.86160456 47.40245894 -107.93052843 47.19821546 -111 47 C-111 46.67 -111 46.34 -111 46 C-100.44 46 -89.88 46 -79 46 C-86.94590405 42.61748092 -86.94590405 42.61748092 -94.7890625 40.953125 C-96.22958984 40.76943359 -96.22958984 40.76943359 -97.69921875 40.58203125 C-98.66472656 40.47246094 -99.63023438 40.36289063 -100.625 40.25 C-102.13126953 40.06244141 -102.13126953 40.06244141 -103.66796875 39.87109375 C-106.11078187 39.56865022 -108.55436332 39.27851124 -111 39 C-111 38.67 -111 38.34 -111 38 C-100.48063576 37.63113918 -91.24569094 38.31050613 -81 41 C-86.35352928 35.64647072 -95.75382007 34.91676736 -102.83984375 33.7109375 C-106 33 -106 33 -108 31 C-100.04601192 31.45406625 -92.67202093 32.87111461 -85 35 C-84.7763932 31.86490423 -84.7763932 31.86490423 -86.5625 28.875 C-88.55920489 24.39183242 -87.89305129 20.70810374 -87 16 C-86.87367187 15.17371094 -86.74734375 14.34742187 -86.6171875 13.49609375 C-85.79885964 8.86138231 -85.79885964 8.86138231 -85 7 C-82.92578125 5.74609375 -82.92578125 5.74609375 -81 5 C-81.0721875 5.66644531 -81.144375 6.33289063 -81.21875 7.01953125 C-82.84811981 21.58141761 -82.84811981 21.58141761 -78 35 C-78 35.66 -78 36.32 -78 37 C-77.4225 37.28875 -76.845 37.5775 -76.25 37.875 C-74.87436883 38.56281558 -73.51433155 39.28470219 -72.1875 40.0625 C-69.19087279 41.3467688 -66.22236424 41.62818874 -63 42 C-63 45 -63 45 -65 47.0625 C-65.66 47.701875 -66.32 48.34125 -67 49 C-67 49.66 -67 50.32 -67 51 C-66.01 51.33 -65.02 51.66 -64 52 C-63.87625 52.804375 -63.7525 53.60875 -63.625 54.4375 C-63.41875 55.283125 -63.2125 56.12875 -63 57 C-62.01 57.495 -62.01 57.495 -61 58 C-61.66 58 -62.32 58 -63 58 C-60.60517966 63.4879364 -60.60517966 63.4879364 -56 67 C-52.13799438 67.27585754 -48.69974059 67.18391699 -45 66 C-45 65.01 -45 64.02 -45 63 C-45.79792969 62.78601563 -46.59585938 62.57203125 -47.41796875 62.3515625 C-50 61 -50 61 -50.92578125 58.3984375 C-51.05339844 57.40070313 -51.18101563 56.40296875 -51.3125 55.375 C-51.45300781 54.37210938 -51.59351563 53.36921875 -51.73828125 52.3359375 C-51.82464844 51.56507812 -51.91101563 50.79421875 -52 50 C-47.81810551 51.77989724 -46.80631827 53.84546798 -45 58 C-41.7 58 -38.4 58 -35 58 C-34.566875 56.535625 -34.13375 55.07125 -33.6875 53.5625 C-32.94921875 51.06640625 -32.94921875 51.06640625 -32 49 C-31.01 48.67 -30.02 48.34 -29 48 C-29.06010418 49.93835966 -29.14891717 51.87584491 -29.25 53.8125 C-29.29640625 54.89144531 -29.3428125 55.97039062 -29.390625 57.08203125 C-30.13124173 60.628446 -31.13911506 61.00310231 -34 63 C-34 64.32 -34 65.64 -34 67 C-28.69894267 65.92181885 -24.83762644 65.07747809 -21 61 C-21 59.68 -21 58.36 -21 57 C-20.01 56.67 -19.02 56.34 -18 56 C-18.66 55.34 -19.32 54.68 -20 54 C-18.68 53.67 -17.36 53.34 -16 53 C-16 51.35 -16 49.7 -16 48 C-17.98 47.34 -19.96 46.68 -22 46 C-22 45.34 -22 44.68 -22 44 C-21.31292969 43.81824219 -20.62585938 43.63648438 -19.91796875 43.44921875 C-19.01691406 43.19785156 -18.11585937 42.94648437 -17.1875 42.6875 C-16.29417969 42.44386719 -15.40085937 42.20023438 -14.48046875 41.94921875 C-9.33666474 39.98080241 -8.06316103 36.38212813 -5.875 31.5 C-5.35679688 30.3553125 -4.83859375 29.210625 -4.3046875 28.03125 C-2.405206 23.6180834 -1.93271237 20.64892764 -2.0625 15.875 C-2.11944093 10.22519403 -1.47524896 5.43998054 0 0 Z M-72 44 C-71 46 -71 46 -71 46 Z M-13 45 C-12 47 -12 47 -12 47 Z M-45 70 C-45 74.71906188 -43.71245796 76.27037031 -41 80 C-39.7619986 76.42355152 -40.25073929 73.66305234 -41 70 C-42.32 70 -43.64 70 -45 70 Z M-38 70 C-38.33 73.3 -38.66 76.6 -39 80 C-34.67137075 78.41883524 -34.67137075 78.41883524 -33.75 74.375 C-33.5025 73.26125 -33.255 72.1475 -33 71 C-34.65 70.67 -36.3 70.34 -38 70 Z " fill="#12040D" transform="translate(120,73)"/>
<path d="M0 0 C5.05481482 4.35275721 8.1251096 9.30064663 9.25 15.9375 C9.33086615 22.28549251 8.56349229 27.02491156 4.25 31.9375 C0.01149826 35.55269266 -5.30300808 36.24928068 -10.75 35.9375 C-13.4375 34.25 -13.4375 34.25 -14.75 31.9375 C-14.5 30.125 -14.5 30.125 -13.75 27.9375 C-13.5945521 23.97357844 -13.83921709 20.28027524 -14.4375 16.375 C-14.95734409 12.08445584 -14.23534815 9.57675979 -11.75 5.9375 C-8.56237635 3.81241756 -6.48487777 3.4354837 -2.75 2.9375 C-6.83229566 1.53421087 -9.68225175 2.22368538 -13.625 3.8515625 C-18.87367793 6.53379129 -23.50807676 9.96848074 -26.75 14.9375 C-27.47045367 18.08868325 -27.47045367 18.08868325 -27.75 20.9375 C-29.235 20.4425 -29.235 20.4425 -30.75 19.9375 C-31.245 18.4525 -31.245 18.4525 -31.75 16.9375 C-38.24920062 16.3332534 -38.24920062 16.3332534 -44.1875 18.4375 C-46.29656334 21.81200134 -47.49100452 25.16051355 -48.75 28.9375 C-49.08 28.9375 -49.41 28.9375 -49.75 28.9375 C-49.84796875 28.23882812 -49.9459375 27.54015625 -50.046875 26.8203125 C-50.19640625 25.91023438 -50.3459375 25.00015625 -50.5 24.0625 C-50.63921875 23.15757813 -50.7784375 22.25265625 -50.921875 21.3203125 C-51.52758645 18.82395929 -51.52758645 18.82395929 -53.59375 17.65625 C-56.60127342 16.65374219 -59.6087535 16.29995152 -62.75 15.9375 C-62.9975 16.68 -63.245 17.4225 -63.5 18.1875 C-64.84147301 21.13874062 -66.35905526 22.78564974 -68.75 24.9375 C-68.523125 23.90625 -68.29625 22.875 -68.0625 21.8125 C-67.68910681 17.18242438 -68.07537635 15.71343927 -70.75 11.9375 C-76.45769064 6.79209115 -80.60086772 3.78280433 -88.4375 3.875 C-89.43136719 3.88402344 -90.42523438 3.89304687 -91.44921875 3.90234375 C-92.20847656 3.91394531 -92.96773437 3.92554688 -93.75 3.9375 C-92.43 3.9375 -91.11 3.9375 -89.75 3.9375 C-87.4609375 4.70703125 -87.4609375 4.70703125 -85.125 5.75 C-84.34898438 6.08644531 -83.57296875 6.42289063 -82.7734375 6.76953125 C-80.75 7.9375 -80.75 7.9375 -78.75 10.9375 C-78.98592666 14.9482532 -79.8299436 18.27066108 -81.375 21.9375 C-82.95354677 25.91081773 -82.79861549 28.74303803 -81.75 32.9375 C-80.79415562 35.27338323 -80.79415562 35.27338323 -79.75 36.9375 C-80.75 37.9375 -80.75 37.9375 -84.25 38.125 C-90.32870494 38.01586706 -95.68096353 37.43424979 -100.6875 33.8125 C-105.02192869 27.7705691 -105.68307969 20.19478646 -104.75 12.9375 C-103.10477285 7.76170431 -100.60653338 3.57692031 -95.75 0.9375 C-88.9770542 -0.77355999 -82.97431462 -0.24916568 -76.75 2.9375 C-75.54039925 3.88922982 -74.3532095 4.86999006 -73.1875 5.875 C-66.54524071 11.19945634 -55.84177322 13.5837039 -47.4375 12.75 C-45.87421409 12.48374051 -44.31172008 12.21279497 -42.75 11.9375 C-40.83397037 11.80308802 -38.9172441 11.67830669 -37 11.5625 C-29.25750085 10.82615043 -24.28559568 7.02636603 -18.1171875 2.55859375 C-12.30180029 -1.42389089 -6.75581905 -2.61020282 0 0 Z " fill="#11040B" transform="translate(125.75,34.0625)"/>
<path d="M0 0 C4.47291297 0.51119005 6.74985895 1.90840242 10 5 C11.55256375 6.9950042 13.03291452 9.01980184 14.47265625 11.09765625 C16.14732916 13.18350205 17.73442527 14.58018141 20 16 C23.16732421 16.25086724 23.16732421 16.25086724 26 16 C25.95875 17.093125 25.9175 18.18625 25.875 19.3125 C25.67925334 23.08892229 25.67925334 23.08892229 28 26 C27.67 26.99 27.34 27.98 27 29 C26.67 28.01 26.34 27.02 26 26 C23.49552484 24.78130071 23.49552484 24.78130071 21 24 C21 24.99 21 25.98 21 27 C18.8125 26.875 18.8125 26.875 16 26 C14.81509804 24.58470044 13.63704233 23.16152772 12.53125 21.68359375 C10.08003244 18.98850505 7.01385859 17.32269196 3.890625 15.4921875 C1.68540438 13.75170346 1.35236412 12.73669469 1 10 C1.66 10.33 2.32 10.66 3 11 C2.87625 9.741875 2.7525 8.48375 2.625 7.1875 C2.55539063 6.47980469 2.48578125 5.77210937 2.4140625 5.04296875 C2.07334609 2.70011858 2.07334609 2.70011858 0 0 Z " fill="#11040B" transform="translate(44,87)"/>
<path d="M0 0 C0.66 0.33 1.32 0.66 2 1 C1.525625 2.0725 1.05125 3.145 0.5625 4.25 C-0.53766332 6.80839865 -1.45167003 9.25835017 -2 12 C-1.01 11.67 -0.02 11.34 1 11 C-0.4802121 14.80031984 -2.4869037 16.26087434 -5.875 18.4375 C-9.60928774 20.94141548 -12.47136306 23.20704459 -15 27 C-16.32 26.67 -17.64 26.34 -19 26 C-18.67 25.34 -18.34 24.68 -18 24 C-20.31 25.32 -22.62 26.64 -25 28 C-24.85904936 26.3745692 -24.71207913 24.74965949 -24.5625 23.125 C-24.48128906 22.22007813 -24.40007812 21.31515625 -24.31640625 20.3828125 C-24 18 -24 18 -23 16 C-21.6696875 16.12375 -21.6696875 16.12375 -20.3125 16.25 C-16.16971361 15.93733688 -14.91202747 14.91202747 -12 12 C-10.64721885 10.01310269 -9.31431695 8.01254782 -8 6 C-3.63829787 1.21276596 -3.63829787 1.21276596 0 0 Z " fill="#12040C" transform="translate(111,87)"/>
<path d="" fill="#1A050F" transform="translate(0,0)"/>
<path d="" fill="#16070B" transform="translate(0,0)"/>
<path d="" fill="#000000" transform="translate(0,0)"/>
</svg>
